<svg width="49" height="41" viewBox="0 0 49 41" fill="none" xmlns="http://www.w3.org/2000/svg">
<path d="M20.2 36.28C17.2908 36.2776 14.4367 35.486 11.9419 33.9895C9.44714 32.493 7.40505 30.3478 6.03326 27.7823C4.66146 25.2169 4.01135 22.3273 4.15219 19.4215C4.29304 16.5157 5.21956 13.7026 6.83305 11.2818C8.44653 8.86103 10.6865 6.92334 13.3144 5.67517C15.9422 4.427 18.8594 3.91513 21.7552 4.19409C24.651 4.47304 27.4169 5.53238 29.7581 7.25923C32.0994 8.98607 33.9283 11.3157 35.05 14H39.43C37.9589 9.41395 34.8977 5.50444 30.7983 2.97643C26.6989 0.448423 21.8311 -0.531705 17.0728 0.212787C12.3145 0.95728 7.97878 3.3774 4.84748 7.03673C1.71617 10.6961 -0.00463867 15.3538 -0.00463867 20.17C-0.00463867 24.9862 1.71617 29.6439 4.84748 33.3032C7.97878 36.9626 12.3145 39.3827 17.0728 40.1272C21.8311 40.8717 26.6989 39.8915 30.7983 37.3635C34.8977 34.8355 37.9589 30.926 39.43 26.34H35.05C33.8332 29.2783 31.7735 31.7903 29.1306 33.5594C26.4878 35.3284 23.3802 36.2751 20.2 36.28Z" fill="#015EE7"/>
<path d="M27.75 22.26C27.2509 24.0925 26.1036 25.6816 24.5212 26.732C22.9387 27.7824 21.0288 28.2226 19.1463 27.9708C17.2637 27.7191 15.5366 26.7925 14.2858 25.3632C13.0349 23.934 12.3454 22.0993 12.3454 20.2C12.3454 18.3007 13.0349 16.466 14.2858 15.0367C15.5366 13.6075 17.2637 12.6809 19.1463 12.4292C21.0288 12.1774 22.9387 12.6176 24.5212 13.668C26.1036 14.7183 27.2509 16.3074 27.75 18.14H36.15C35.9696 16.7171 35.5996 15.3248 35.05 14H30.42C29.0704 11.7488 27.02 10.0021 24.5829 9.02766C22.1457 8.05319 19.4563 7.90465 16.9267 8.60479C14.3971 9.30494 12.1668 10.8151 10.5775 12.904C8.98824 14.9929 8.12769 17.5453 8.12769 20.17C8.12769 22.7947 8.98824 25.3471 10.5775 27.4359C12.1668 29.5248 14.3971 31.035 16.9267 31.7352C19.4563 32.4353 22.1457 32.2868 24.5829 31.3123C27.02 30.3378 29.0704 28.5912 30.42 26.34H35.05C35.5971 25.0248 35.967 23.6427 36.15 22.23L27.75 22.26Z" fill="#015EE7"/>
<path d="M39.43 26.38H43.69C44.0404 25.0292 44.2746 23.6508 44.39 22.26H40.26C40.1283 23.6586 39.8502 25.0395 39.43 26.38Z" fill="#015EE7"/>
<path d="M40.27 18.14H44.39C44.2739 16.742 44.0363 15.3568 43.68 14H39.43C39.8565 15.3462 40.138 16.734 40.27 18.14Z" fill="#015EE7"/>
<path d="M40.37 20.2C40.37 19.5 40.37 18.82 40.27 18.14H36.15C36.3233 19.5079 36.3233 20.8921 36.15 22.26H40.27C40.33 21.58 40.37 20.89 40.37 20.2Z" fill="#015EE7"/>
<path d="M20.18 23.38C21.9584 23.38 23.4 21.9384 23.4 20.16C23.4 18.3816 21.9584 16.94 20.18 16.94C18.4017 16.94 16.96 18.3816 16.96 20.16C16.96 21.9384 18.4017 23.38 20.18 23.38Z" fill="#015EE7"/>
<path d="M48.46 18.14H44.4C44.45 18.81 44.49 19.48 44.49 20.14C44.49 20.8 44.49 21.55 44.39 22.24H48.45C48.51 21.5733 48.54 20.8733 48.54 20.14C48.54 19.48 48.51 18.81 48.46 18.14Z" fill="#015EE7"/>
</svg>
